:SAMPLES-PER-SECOND 30
:FULLY-SPECIFIED
:DEGREES
779
root  28.002 39.6567 -44.3069 4.23871 55.8106 7.28235
RightUpLeg  5.09665 -5.29445 2.45526
RightLeg  15.4804 7.62304 3.04916
RightFoot  -14.9137 -0.607469 -16.1334
RightToes  -4.65663e-010 0 -3.6325e-017
Spine  1.40638 0.0718562 6.65154
Spine1  6.83183 0.912324 -2.54834
HEad  -9.80113 -6.53884 0.804607
LeftShoulder1  8.67782 -12.1455 -48.4026
LeftArm  -7.48602 31.5442 -28.8631
LeftForeArm  30.3578 -7.81497 -5.77534
LeftHand  -0.244104 0.0205437 5.32207
RightShoulder  5.91342 9.49453 39.388
RightArm  8.05422 -4.64509 35.3743
RightForeArm  10.5934 44.3502 10.2293
RightHand  -0.591281 -0.443701 -13.879
LeftUpLeg  -18.4541 5.92775 5.71442
LeftLeg  19.4648 2.982 1.43783
LeftFoot  -0.193905 0.533096 -5.45977
LeftToes  -7.27628e-011 -1.6005e-012 -1.37987e-011
780
root  29.2489 39.6058 -43.9728 4.23468 52.4874 7.24854
RightUpLeg  7.15827 -5.18821 0.864748
RightLeg  15.1935 10.78 3.19268
RightFoot  -16.1694 -0.776432 -15.7533
RightToes  -4.65663e-010 0 -3.6325e-017
Spine  1.31806 0.289236 6.21896
Spine1  7.0339 1.23799 -3.3693
HEad  -10.1863 -5.29562 0.616908
LeftShoulder1  8.43353 -11.8382 -47.9757
LeftArm  -7.70029 32.502 -29.7096
LeftForeArm  30.3063 -7.01454 -5.72096
LeftHand  -0.244104 0.0205437 5.32207
RightShoulder  5.99436 9.54765 39.8011
RightArm  8.37909 -3.89923 35.1986
RightForeArm  10.9948 45.7243 10.7276
RightHand  -0.586297 -0.411342 -13.6676
LeftUpLeg  -16.9881 6.30765 5.89101
LeftLeg  8.2297 1.61282 -0.510216
LeftFoot  -1.04967 0.677951 -7.48421
LeftToes  -7.27628e-011 -1.6005e-012 -1.37987e-011
781
root  30.5531 39.4564 -43.6368 3.40005 49.0178 6.66528
RightUpLeg  9.1021 -4.18128 -0.386553
RightLeg  15.8433 13.0498 3.25222
RightFoot  -17.5871 -0.91975 -14.5941
RightToes  -4.65663e-010 0 -3.6325e-017
Spine  1.63295 0.602331 6.75898
Spine1  7.12346 1.86126 -4.71618
HEad  -10.4518 -5.15149 1.15895
LeftShoulder1  8.14988 -11.4687 -47.4982
LeftArm  -8.01345 32.9241 -30.1878
LeftForeArm  30.0941 -6.52598 -5.61935
LeftHand  -0.244104 0.0205437 5.32207
RightShoulder  6.09591 9.61759 40.3032
RightArm  8.41784 -3.66741 34.8279
RightForeArm  11.3898 45.6113 10.6573
RightHand  -0.532929 -0.621059 -12.9605
LeftUpLeg  -15.1794 4.64458 7.09308
LeftLeg  0.812492 2.5361 -2.36039
LeftFoot  -1.50874 0.875355 -10.0093
LeftToes  -7.27628e-011 -1.6005e-012 -1.37987e-011
782
root  31.9261 39.2669 -43.2749 2.29434 46.0194 5.87775
RightUpLeg  10.9279 -1.74702 -1.07772
RightLeg  16.9045 13.4284 3.33108
RightFoot  -18.4416 -0.963485 -13.4409
RightToes  -4.65663e-010 0 -3.6325e-017
Spine  1.83212 0.785581 7.43558
Spine1  7.2703 2.29298 -5.6892
HEad  -10.0278 -5.05367 1.33024
LeftShoulder1  7.96134 -11.201 -47.2373
LeftArm  -8.53824 33.1017 -30.2853
LeftForeArm  29.8633 -6.50111 -5.42194
LeftHand  -0.244104 0.0205437 5.32207
RightShoulder  6.10274 9.6229 40.3341
RightArm  8.4326 -3.97543 34.711
RightForeArm  10.8448 43.8861 10.0447
RightHand  -0.511397 -0.76445 -12.8098
LeftUpLeg  -14.475 4.83998 7.09077
LeftLeg  -0.252665 1.08483 -2.64382
LeftFoot  0.72199 1.17116 -11.1289
LeftToes  -7.27628e-011 -1.6005e-012 -1.37987e-011
783
root  33.3061 39.0637 -42.8318 1.56314 43.8014 5.63074
RightUpLeg  12.5237 2.42256 -1.259
RightLeg  18.5776 11.0564 3.26046
RightFoot  -19.1029 -0.948382 -12.0866
RightToes  -4.65663e-010 0 -3.6325e-017
Spine  1.86674 0.753209 6.5443
Spine1  7.43446 2.13641 -5.12572
HEad  -9.12483 -4.74911 1.32273
LeftShoulder1  7.86923 -11.0383 -47.2114
LeftArm  -8.6 32.8386 -29.8955
LeftForeArm  29.5381 -6.6377 -5.38479
LeftHand  -0.244104 0.0205437 5.32207
RightShoulder  6.06655 9.52825 40.3914
RightArm  8.62464 -4.33057 34.6068
RightForeArm  9.17372 40.3089 8.92805
RightHand  -0.567654 -0.47852 -13.4097
LeftUpLeg  -14.7783 5.06039 6.38971
LeftLeg  3.69254 -0.168988 -2.36001
LeftFoot  5.01645 1.50452 -10.6647
LeftToes  -7.27628e-011 -1.6005e-012 -1.37987e-011
784
root  34.6246 38.8604 -42.3083 1.28143 41.8692 6.20663
RightUpLeg  13.2698 6.78677 -1.73891
RightLeg  22.2434 7.89089 3.38873
RightFoot  -19.5745 -0.751143 -8.63214
RightToes  -4.65663e-010 0 -3.6325e-017
Spine  2.19806 0.685718 3.93888
Spine1  7.26156 1.6329 -3.38202
HEad  -8.11591 -4.63886 1.89434
LeftShoulder1  7.86981 -10.9691 -47.4437
LeftArm  -7.60388 31.6857 -28.6314
LeftForeArm  29.2147 -6.46177 -5.68516
LeftHand  -0.244104 0.0205437 5.32207
RightShoulder  6.13055 9.464 41.0721
RightArm  8.74153 -4.51847 34.3867
RightForeArm  7.01419 34.4658 7.29392
RightHand  -0.71594 0.461101 -14.2591
LeftUpLeg  -15.1152 7.1726 4.92549
LeftLeg  9.43686 -2.09841 -2.00385
LeftFoot  7.11705 1.63447 -10.3056
LeftToes  -7.27628e-011 -1.6005e-012 -1.37987e-011
785
root  35.8369 38.7958 -41.7924 1.32919 39.5692 7.25552
RightUpLeg  11.8552 8.1264 -3.75533
RightLeg  28.8684 7.61039 4.32968
RightFoot  -17.0139 -0.276313 -2.70278
RightToes  -4.65663e-010 0 -3.6325e-017
Spine  3.08708 0.702398 1.2755
Spine1  6.66844 1.34372 -2.33814
HEad  -7.32021 -5.05706 2.80213
LeftShoulder1  7.99792 -11.0684 -47.8942
LeftArm  -6.191 29.5229 -26.507
LeftForeArm  29.0771 -5.96764 -6.07388
LeftHand  -0.244104 0.0205437 5.32207
RightShoulder  6.28246 9.54783 41.8785
RightArm  8.26289 -4.83503 34.6165
RightForeArm  4.33704 26.4673 5.62557
RightHand  -0.939822 1.78669 -15.3069
LeftUpLeg  -14.634 10.6151 3.15976
LeftLeg  14.122 -3.70986 -1.61704
LeftFoot  4.97238 1.45304 -10.3208
LeftToes  -7.27628e-011 -1.6005e-012 -1.37987e-011
786
root  36.9711 38.9045 -41.3556 1.28745 36.644 7.94141
RightUpLeg  7.42102 7.96529 -6.41447
RightLeg  38.227 7.26832 5.82834
RightFoot  -8.83236 -0.129198 2.8212
RightToes  -4.65663e-010 0 -3.6325e-017
Spine  4.36375 0.764517 0.161418
Spine1  5.85004 1.40242 -2.82339
HEad  -7.09227 -5.77054 3.1142
LeftShoulder1  8.20311 -11.3238 -48.284
LeftArm  -5.63072 26.6614 -24.2589
LeftForeArm  28.9285 -5.60091 -6.16411
LeftHand  -0.244104 0.0205437 5.32207
RightShoulder  6.37772 9.71792 41.974
RightArm  4.02384 -5.36569 35.36
RightForeArm  3.85668 17.3278 5.64671
RightHand  -1.12523 2.59134 -16.5013
LeftUpLeg  -13.1429 13.061 1.92887
LeftLeg  16.5767 -3.16386 -1.12432
LeftFoot  1.34142 1.04332 -9.42196
LeftToes  -7.27628e-011 -1.6005e-012 -1.37987e-011
787
root  38.0273 39.0485 -40.9703 0.984924 33.3669 8.04199
RightUpLeg  0.96486 6.95971 -8.48631
RightLeg  48.1925 4.72984 5.2371
RightFoot  2.05211 -0.55141 5.02734
RightToes  -4.65663e-010 0 -3.6325e-017
Spine  5.82485 0.780679 -0.139664
Spine1  5.11119 1.41934 -3.45765
HEad  -7.62821 -6.39461 2.60121
LeftShoulder1  8.34519 -11.5563 -48.3647
LeftArm  -6.28762 23.5025 -22.514
LeftForeArm  28.1258 -5.77688 -5.92559
LeftHand  -0.244104 0.0205437 5.32207
RightShoulder  6.38919 9.879 41.511
RightArm  -5.36289 -5.92252 35.5804
RightForeArm  8.92437 9.01337 7.2683
RightHand  -1.14517 2.41174 -17.1474
LeftUpLeg  -11.1458 14.4488 1.30014
LeftLeg  17.4923 -1.14764 -0.54089
LeftFoot  -0.917809 0.697526 -7.59677
LeftToes  -7.27628e-011 -1.6005e-012 -1.37987e-011
788
root  38.9895 39.1951 -40.5588 0.397827 30.2103 7.65781
RightUpLeg  -5.4183 5.1666 -9.37346
RightLeg  56.1599 0.903174 0.999284
RightFoot  8.7867 -0.665054 4.10212
RightToes  -4.65663e-010 0 -3.6325e-017
Spine  7.28613 0.686024 -0.768844
Spine1  4.55879 1.05533 -2.74299
HEad  -8.63998 -6.75245 1.88763
LeftShoulder1  8.35498 -11.6189 -48.2198
LeftArm  -7.60256 20.3116 -21.0814
LeftForeArm  26.3017 -6.60577 -5.60554
LeftHand  -0.244104 0.0205437 5.32207
RightShoulder  6.4293 10.0211 41.3183
RightArm  -6.79117 -6.70104 34.8353
RightForeArm  10.1731 4.79952 6.86794
RightHand  -1.06006 1.9837 -16.7845
LeftUpLeg  -8.83909 15.6078 1.40198
LeftLeg  17.5872 0.883727 -0.245047
LeftFoot  -2.08587 0.530501 -6.41013
LeftToes  -7.27628e-011 -1.6005e-012 -1.37987e-011
789
root  39.8912 39.4421 -40.0795 -0.367523 27.4525 6.8353
RightUpLeg  -10.6026 2.16499 -8.98454
RightLeg  60.7095 -2.14946 -4.58271
RightFoot  8.8742 -0.288756 1.91271
RightToes  -4.65663e-010 0 -3.6325e-017
Spine  8.60884 0.364708 -1.40025
Spine1  4.01568 0.355874 -1.06095
HEad  -9.56859 -6.93151 1.5251
LeftShoulder1  8.27384 -11.5363 -48.011
LeftArm  -9.2742 17.3342 -19.4476
LeftForeArm  23.9993 -8.03748 -5.24982
LeftHand  -0.244104 0.0205437 5.32207
RightShoulder  6.50064 10.1019 41.546
RightArm  -5.21025 -8.11185 33.0052
RightForeArm  13.3353 4.46162 6.96539
RightHand  -0.991858 1.93404 -15.8355
LeftUpLeg  -5.816 16.4677 2.29642
LeftLeg  16.3237 2.72073 -0.47326
LeftFoot  -3.23175 0.473292 -6.40778
LeftToes  -7.27628e-011 -1.6005e-012 -1.37987e-011
790
root  40.7423 39.6859 -39.5612 -0.93042 25.0124 5.88657
RightUpLeg  -14.7694 -1.77566 -7.61681
RightLeg  61.3424 -3.36346 -7.15929
RightFoot  5.3674 -0.0153717 0.375103
RightToes  -4.65663e-010 0 -3.6325e-017
Spine  9.71731 -0.184537 -1.71399
Spine1  3.33786 -0.500773 0.348616
HEad  -10.0918 -7.15134 1.53715
LeftShoulder1  8.14235 -11.406 -47.6549
LeftArm  -11.282 14.8985 -17.5512
LeftForeArm  21.9788 -10.1441 -4.70649
LeftHand  -0.244104 0.0205437 5.32207
RightShoulder  6.44166 9.99052 41.5047
RightArm  -2.20943 -10.1983 31.216
RightForeArm  15.8848 6.62536 7.52384
RightHand  -0.930939 1.87706 -14.9914
LeftUpLeg  -2.82751 16.0466 3.36157
LeftLeg  14.5907 5.50156 -1.00659
LeftFoot  -4.46076 0.421484 -6.55542
LeftToes  -7.27628e-011 -1.6005e-012 -1.37987e-011
791
root  41.5355 39.8294 -39.0086 -1.10114 22.6958 5.2081
RightUpLeg  -18.2612 -5.701 -5.70623
RightLeg  58.3943 -3.12442 -5.96823
RightFoot  2.79219 -0.00143535 0.174189
RightToes  -4.65663e-010 0 -3.6325e-017
Spine  10.5618 -0.833359 -2.10736
Spine1  2.56311 -1.40254 1.18759
HEad  -10.1834 -7.59941 1.88176
LeftShoulder1  7.97914 -11.2955 -47.037
LeftArm  -13.2851 13.1817 -15.5999
LeftForeArm  20.45 -12.94 -4.02831
LeftHand  -0.244104 0.0205437 5.32207
RightShoulder  6.20334 9.68059 40.8605
RightArm  1.4974 -12.4485 30.1829
RightForeArm  14.7742 9.35845 8.04175
RightHand  -0.848753 1.49101 -14.4326
LeftUpLeg  -0.396934 14.0905 3.92471
LeftLeg  13.125 9.72405 -1.60478
LeftFoot  -5.26188 0.368124 -6.33445
LeftToes  -7.27628e-011 -1.6005e-012 -1.37987e-011
792
root  42.2774 39.9238 -38.399 -1.1561 20.2534 4.78836
RightUpLeg  -20.8143 -9.12821 -3.35255
RightLeg  52.5147 -2.85007 -4.35008
RightFoot  1.80242 -0.0187907 0.269285
RightToes  -4.65663e-010 0 -3.6325e-017
Spine  11.2478 -1.41201 -2.56795
Spine1  1.80479 -2.17012 1.80839
HEad  -9.92841 -8.30457 2.53045
LeftShoulder1  7.82951 -11.2501 -46.2791
LeftArm  -15.2066 11.9615 -13.5659
LeftForeArm  19.613 -15.9815 -3.52301
LeftHand  -0.244104 0.0205437 5.32207
RightShoulder  5.95998 9.38444 40.101
RightArm  4.40854 -14.4516 29.6114
RightForeArm  11.4576 11.396 8.06345
RightHand  -0.801787 1.24954 -14.1256
LeftUpLeg  2.07793 11.6099 4.06572
LeftLeg  11.4037 14.483 -2.37098
LeftFoot  -5.7916 0.347111 -6.44918
LeftToes  -7.27628e-011 -1.6005e-012 -1.37987e-011
